<svg width="50" height="50" viewBox="0 0 50 50" fill="none" xmlns="http://www.w3.org/2000/svg">
<path d="M23.869 16.8123L7.2753 34.228C6.99828 34.5185 6.84375 34.9046 6.84375 35.3061C6.84375 35.7075 6.99828 36.0936 7.2753 36.3842L7.29405 36.403C7.42834 36.5443 7.58998 36.6569 7.76915 36.7338C7.94832 36.8107 8.14126 36.8504 8.33624 36.8504C8.53121 36.8504 8.72415 36.8107 8.90332 36.7338C9.08249 36.6569 9.24413 36.5443 9.37842 36.403L25.0034 20.003L40.6222 36.403C40.7565 36.5443 40.9181 36.6569 41.0973 36.7338C41.2764 36.8107 41.4694 36.8504 41.6644 36.8504C41.8593 36.8504 42.0523 36.8107 42.2314 36.7338C42.4106 36.6569 42.5723 36.5443 42.7065 36.403L42.7253 36.3842C43.0023 36.0936 43.1568 35.7075 43.1568 35.3061C43.1568 34.9046 43.0023 34.5185 42.7253 34.228L26.1315 16.8123C25.9856 16.6592 25.8101 16.5372 25.6157 16.4539C25.4212 16.3706 25.2118 16.3276 25.0003 16.3276C24.7887 16.3276 24.5794 16.3706 24.3849 16.4539C24.1905 16.5372 24.015 16.6592 23.869 16.8123Z" fill="black"/>
</svg>
