<svg width="20" height="20" viewBox="0 0 20 20" fill="none" xmlns="http://www.w3.org/2000/svg">
    <path d="M10.114 1.87502C5.5445 1.8133 1.81404 5.54377 1.87575 10.1133C1.93669 14.4957 5.50505 18.0641 9.88747 18.125C14.4578 18.1875 18.1875 14.4571 18.125 9.88752C18.0648 5.50432 14.4965 1.93596 10.114 1.87502ZM15.0523 14.6582C15.0368 14.6751 15.0177 14.6883 14.9965 14.6969C14.9752 14.7055 14.9524 14.7094 14.9295 14.7082C14.9066 14.707 14.8842 14.7008 14.864 14.69C14.8438 14.6792 14.8262 14.6641 14.8125 14.6457C14.4631 14.1886 14.0352 13.7972 13.5488 13.4899C12.5543 12.8516 11.2941 12.5 10.0008 12.5C8.7074 12.5 7.44724 12.8516 6.45271 13.4899C5.96633 13.7971 5.53845 14.1883 5.18904 14.6453C5.17531 14.6637 5.15771 14.6788 5.13749 14.6896C5.11728 14.7004 5.09493 14.7066 5.07204 14.7078C5.04916 14.709 5.02629 14.7051 5.00505 14.6965C4.98382 14.6879 4.96475 14.6747 4.94919 14.6578C3.80297 13.4205 3.15368 11.8037 3.12575 10.1172C3.06208 6.31604 6.18122 3.1344 9.98396 3.12502C13.7867 3.11565 16.8758 6.20354 16.8758 10C16.8771 11.7271 16.2258 13.391 15.0523 14.6582Z" fill="black"/>
    <path d="M9.99956 5.625C9.22925 5.625 8.53276 5.91367 8.03784 6.43828C7.54292 6.96289 7.29565 7.68828 7.35151 8.4668C7.4648 10 8.65269 11.25 9.99956 11.25C11.3464 11.25 12.532 10 12.6476 8.46719C12.7054 7.69609 12.4601 6.97734 11.957 6.44297C11.4601 5.91563 10.7648 5.625 9.99956 5.625Z" fill="black"/>
</svg>